<?xml version="1.0"?>

<svg version="1.0" xmlns="http://www.w3.org/2000/svg" width="2000.000000pt" height="2000.000000pt" viewBox="0 0 2000.000000 2000.000000" preserveAspectRatio="xMidYMid meet">

<g transform="translate(0.000000,2000.000000) scale(0.100000,-0.100000)" fill="#000000" stroke="none">
<path d="M7540 9985 l0 -815 155 0 155 0 0 815 0 815 -155 0 -155 0 0 -815z"></path>
<path d="M8291 10790 c-51 -12 -84 -42 -100 -89 -17 -54 -7 -122 24 -159 57&#xA;-68 207 -68 272 0 23 24 28 39 31 97 4 64 2 70 -27 103 -44 50 -117 68 -200&#xA;48z"></path>
<path d="M8850 9985 l0 -815 155 0 155 0 0 183 0 182 57 45 c31 25 64 50 73&#xA;57 14 10 39 -20 186 -228 l169 -239 178 0 c97 0 177 2 177 5 0 3 -106 147&#xA;-236 322 -130 174 -238 322 -241 329 -3 7 88 114 204 241 114 126 217 239 227&#xA;251 l19 22 -175 0 -175 0 -170 -187 c-94 -104 -198 -223 -232 -265 -34 -43&#xA;-62 -78 -64 -78 -1 0 0 223 2 495 l3 495 -156 0 -156 0 0 -815z"></path>
<path d="M13117 10703 c-7 -11 -537 -1519 -537 -1527 0 -3 78 -6 173 -6 l172&#xA;0 55 183 55 182 278 3 c257 2 278 1 285 -15 3 -10 29 -92 57 -183 l51 -165&#xA;172 -3 c95 -1 172 1 172 5 0 5 -121 350 -269 768 l-268 760 -196 3 c-107 1&#xA;-198 -1 -200 -5z m306 -585 l94 -308 -199 0 c-185 0 -199 1 -194 18 3 9 39&#xA;127 80 262 40 135 82 274 92 309 13 50 19 60 25 45 4 -10 50 -157 102 -326z"></path>
<path d="M6140 9935 l0 -765 160 0 160 0 0 275 0 274 58 42 c31 23 62 46 68&#xA;51 8 6 75 -94 214 -317 l203 -325 179 0 c177 0 179 0 168 20 -6 12 -124 199&#xA;-262 418 -138 218 -253 402 -255 409 -3 7 113 161 256 342 144 182 261 333&#xA;261 336 0 3 -78 5 -172 5 l-173 0 -206 -258 c-113 -141 -234 -298 -270 -349&#xA;l-64 -92 -3 350 -2 349 -160 0 -160 0 0 -765z"></path>
<path d="M12060 9935 l0 -765 160 0 160 0 0 765 0 765 -160 0 -160 0 0 -765z"></path>
<path d="M10485 10346 c-126 -25 -265 -75 -265 -96 0 -8 86 -188 95 -198 1 -1&#xA;22 6 47 17 75 32 208 61 281 61 122 0 187 -61 187 -178 l0 -51 -42 -5 c-24 -3&#xA;-99 -7 -168 -10 -382 -13 -547 -153 -509 -430 18 -136 88 -236 192 -274 77&#xA;-29 197 -37 283 -19 94 20 146 48 211 113 30 30 57 54 61 54 4 0 20 -36 37&#xA;-80 l29 -80 108 0 109 0 -3 453 -3 452 -28 60 c-47 100 -113 156 -229 196 -80&#xA;27 -287 35 -393 15z m345 -698 c0 -92 -12 -133 -51 -181 -42 -50 -100 -79&#xA;-176 -85 -113 -9 -175 40 -175 136 1 125 76 178 272 192 58 4 111 8 118 8 8 2&#xA;12 -18 12 -70z"></path>
<path d="M8200 9755 l0 -585 155 0 155 0 0 585 0 585 -155 0 -155 0 0 -585z"></path>
</g>
</svg>